<?xml version="1.0" standalone="no"?>
<!DOCTYPE svg PUBLIC "-//W3C//DTD SVG 20010904//EN"
 "http://www.w3.org/TR/2001/REC-SVG-20010904/DTD/svg10.dtd">
<svg version="1.0" xmlns="http://www.w3.org/2000/svg"
 width="512.000000pt" height="512.000000pt" viewBox="0 0 512.000000 512.000000"
 preserveAspectRatio="xMidYMid meet">

<g transform="translate(0.000000,512.000000) scale(0.100000,-0.100000)"
fill="#000000" stroke="none">
<path d="M2371 5100 c-919 -77 -1699 -605 -2102 -1425 -250 -509 -322 -1085
-203 -1646 215 -1022 1043 -1810 2084 -1983 733 -122 1506 95 2075 584 473
407 769 955 867 1605 20 139 17 530 -6 680 -82 540 -310 1007 -690 1413 -219
234 -579 474 -901 601 -344 135 -772 200 -1124 171z m410 -380 c852 -86 1577
-667 1842 -1477 78 -239 107 -424 107 -685 0 -360 -70 -660 -228 -973 -213
-425 -545 -755 -974 -971 -449 -225 -975 -284 -1473 -164 -773 185 -1382 785
-1585 1561 -41 158 -60 287 -67 469 -33 842 427 1628 1179 2013 366 188 790
268 1199 227z"/>
<path d="M1212 4130 c-51 -27 -117 -99 -133 -147 -15 -48 -7 -141 16 -186 17
-31 371 -415 1077 -1165 l127 -136 3 -680 c3 -756 0 -720 71 -794 49 -51 101
-74 171 -75 117 -1 208 47 253 133 l24 44 -3 761 c-3 736 -4 761 -23 803 -13
28 -240 278 -659 727 -501 537 -649 690 -685 707 -67 32 -182 36 -239 8z"/>
</g>
</svg>
